<svg width="512" height="512" viewBox="0 0 512 512" xmlns="http://www.w3.org/2000/svg">
  <defs>
    <linearGradient id="grad" x1="0%" y1="0%" x2="100%" y2="100%">
      <stop offset="0%" style="stop-color:#667eea;stop-opacity:1" />
      <stop offset="100%" style="stop-color:#764ba2;stop-opacity:1" />
    </linearGradient>
  </defs>
  <rect width="512" height="512" rx="112" fill="url(#grad)"/>
  <path d="M256 128c-35.3 0-64 28.7-64 64v128c0 35.3 28.7 64 64 64s64-28.7 64-64V192c0-35.3-28.7-64-64-64z" fill="#ffffff" opacity="0.9"/>
  <path d="M240 320v48h32v-48h-32z" fill="#ffffff"/>
  <path d="M208 256c0-26.5 21.5-48 48-48s48 21.5 48 48v64c0 26.5-21.5 48-48 48s-48-21.5-48-48v-64z" fill="#ffffff" opacity="0.7"/>
</svg>

